<svg width="16" height="16" viewBox="0 0 16 16" fill="none" xmlns="http://www.w3.org/2000/svg">
<g clip-path="url(#clip0_3661_166)">
<path d="M0 1C0 0.447715 0.447715 0 1 0H15C15.5523 0 16 0.447715 16 1V15C16 15.5523 15.5523 16 15 16H1C0.447715 16 0 15.5523 0 15V1Z" fill="url(#paint0_linear_3661_166)"/>
<path d="M3 11.1717V5.72754H5.12244C6.32173 5.72754 7.05551 6.44554 7.05551 7.47125C7.05551 8.67844 6.27439 9.33332 4.98042 9.33332H3.93103V11.1717H3ZM3.93103 8.59165H5.06721C5.75365 8.59165 6.11659 8.19714 6.11659 7.5107C6.11659 6.84793 5.73787 6.48499 5.0751 6.48499H3.93103V8.59165Z" fill="white"/>
<path d="M7.33647 11.1717V5.72754H8.63045L9.60882 8.53642C9.8692 9.30176 10.0664 9.90929 10.1848 10.359C10.3032 9.92507 10.4925 9.32543 10.745 8.57587L11.7155 5.72754H12.9937V11.1717H12.0942V9.04138C12.0942 8.11824 12.11 7.33712 12.1337 6.69802C12.0311 7.06097 11.8417 7.64483 11.5656 8.44962L10.6188 11.1717H9.7035L8.69357 8.36283C8.5121 7.84998 8.33852 7.29767 8.16493 6.70591C8.1886 7.33712 8.20438 8.11824 8.20438 9.05716V11.1717H7.33647Z" fill="white"/>
</g>
<defs>
<linearGradient id="paint0_linear_3661_166" x1="0.5" y1="17.5" x2="15.5" y2="0" gradientUnits="userSpaceOnUse">
<stop stop-color="#943CFF"/>
<stop offset="0.908654" stop-color="#FB861A"/>
</linearGradient>
<clipPath id="clip0_3661_166">
<rect width="16" height="16" fill="white"/>
</clipPath>
</defs>
</svg>
